:SAMPLES-PER-SECOND 30
:FRAME-RANGE 1-4244
:FULLY-SPECIFIED
:DEGREES
2388
root  17.457 19.6394 29.1714 -133.047 64.7072 173.374
RightUpLeg  -48.3558 -0.806703 -2.179
RightLeg  109.411 2.36988 -5.07758
RightFoot  -22.7206 1.34994 15.0268
RightToes  -3.31784e-009 0 -3.6325e-017
Spine  39.5802 2.68834 -4.84767
Spine1  -11.5166 0.479818 4.51294
HEad  -40.7462 16.8989 -29.4624
LeftShoulder1  0.821809 -5.1851 -1.1576
LeftArm  13.8695 -84.602 -75.7464
LeftForeArm  15.9527 7.61362 -15.6845
LeftHand  0.69999 9.07697 22.1216
RightShoulder  12.631 34.7874 26.3661
RightArm  -27.537 29.7509 12.7256
RightForeArm  13.7344 -4.83138 10.1941
RightHand  -0.944459 -1.03666 -24.94
LeftUpLeg  -51.3637 -4.70234 -0.119464
LeftLeg  109.489 3.50403 -9.57307
LeftFoot  -6.04193 0.614772 -12.465
LeftToes  1.0277e-010 -6.71454e-011 3.04227e-011
2389
root  17.5699 19.6692 29.1625 -134.456 64.6244 172.177
RightUpLeg  -47.448 -1.16322 -2.55744
RightLeg  109.014 2.19193 -4.72934
RightFoot  -23.8327 1.72281 17.1132
RightToes  -3.31784e-009 0 -3.6325e-017
Spine  40.1418 3.02111 -5.59716
Spine1  -11.8401 0.52076 4.64106
HEad  -41.1321 16.4697 -28.7367
LeftShoulder1  0.789429 -5.25754 -0.648436
LeftArm  19.0596 -84.5942 -81.2269
LeftForeArm  15.8868 7.58311 -15.732
LeftHand  0.711543 9.12093 22.2103
RightShoulder  12.4292 33.7978 26.7518
RightArm  -27.7356 28.0477 12.6253
RightForeArm  14.0417 -1.1973 10.3115
RightHand  -1.06995 -0.245208 -23.9664
LeftUpLeg  -55.1817 -5.44611 -0.996818
LeftLeg  115.676 3.71021 -7.64032
LeftFoot  -9.8004 0.20134 -10.5931
LeftToes  1.0277e-010 -6.71454e-011 3.04227e-011
2390
root  17.6549 19.6617 29.1521 -134.995 64.972 172.261
RightUpLeg  -46.5355 -0.865882 -2.73191
RightLeg  108.794 2.09907 -4.54432
RightFoot  -23.8491 1.66278 16.5544
RightToes  -3.31784e-009 0 -3.6325e-017
Spine  40.7155 3.28461 -5.91954
Spine1  -11.8918 0.642695 4.28648
HEad  -41.7225 16.3205 -28.594
LeftShoulder1  0.795256 -5.27065 -0.708689
LeftArm  19.262 -84.4928 -81.7776
LeftForeArm  16.5522 7.61738 -15.6436
LeftHand  0.701726 9.06388 22.2445
RightShoulder  12.482 33.044 27.6371
RightArm  -29.9322 26.8624 12.1204
RightForeArm  14.9961 2.41542 9.73741
RightHand  -1.11903 0.0244456 -23.8318
LeftUpLeg  -58.8841 -5.47408 -1.9819
LeftLeg  121.039 3.42399 -5.77542
LeftFoot  -12.8316 -0.0275239 -8.00912
LeftToes  1.0277e-010 -6.71454e-011 3.04227e-011
2391
root  17.7513 19.6215 29.1197 -134.604 65.7817 173.656
RightUpLeg  -45.3731 -0.016639 -2.64211
RightLeg  108.575 2.35511 -5.27667
RightFoot  -23.7341 1.68684 16.9176
RightToes  -3.31784e-009 0 -3.6325e-017
Spine  41.3372 3.64281 -6.08118
Spine1  -11.8345 0.88318 3.86935
HEad  -42.0143 16.547 -28.8779
LeftShoulder1  0.815824 -5.22317 -1.03276
LeftArm  15.5262 -84.098 -78.3515
LeftForeArm  17.1384 7.6691 -15.5301
LeftHand  0.698237 9.00737 22.4623
RightShoulder  12.576 32.772 28.1754
RightArm  -32.5771 26.276 11.4915
RightForeArm  15.64 5.80658 9.2133
RightHand  -1.17078 0.16345 -24.3013
LeftUpLeg  -61.9136 -4.88932 -2.84372
LeftLeg  124.711 3.58615 -5.28268
LeftFoot  -15.5787 -0.182734 -7.45181
LeftToes  1.0277e-010 -6.71454e-011 3.04227e-011
2392
root  17.9045 19.6363 29.0561 -134.656 67.0743 174.455
RightUpLeg  -44.2839 1.03301 -3.11471
RightLeg  108.146 2.52563 -5.86627
RightFoot  -23.8625 1.77463 17.5372
RightToes  -3.31784e-009 0 -3.6325e-017
Spine  41.7142 4.12481 -6.9445
Spine1  -11.6343 1.08348 3.28907
HEad  -41.6041 16.9135 -29.5302
LeftShoulder1  0.817773 -5.1019 -1.20814
LeftArm  12.0149 -83.6702 -74.4575
LeftForeArm  16.789 7.63459 -15.604
LeftHand  0.704345 9.03067 22.5078
RightShoulder  12.5535 32.8458 28.0372
RightArm  -34.3478 26.4907 10.7705
RightForeArm  15.3829 8.71175 8.64192
RightHand  -1.18578 0.0517542 -25.089
LeftUpLeg  -64.4227 -3.36516 -4.21051
LeftLeg  125.665 3.89131 -5.50371
LeftFoot  -16.3848 -0.182104 -6.35772
LeftToes  1.0277e-010 -6.71454e-011 3.04227e-011
2393
root  18.0112 19.5574 28.9554 -132.899 67.9004 177.041
RightUpLeg  -43.2454 1.9749 -2.59061
RightLeg  107.707 2.84419 -6.89076
RightFoot  -23.2675 1.50613 15.8476
RightToes  -3.31784e-009 0 -3.6325e-017
Spine  41.7516 4.22709 -6.5273
Spine1  -11.6431 1.3059 2.94446
HEad  -41.0397 17.5924 -30.1532
LeftShoulder1  0.823963 -5.05331 -1.35163
LeftArm  9.36953 -82.9908 -70.7639
LeftForeArm  15.7768 7.47367 -15.8851
LeftHand  0.740273 9.21564 22.5009
RightShoulder  12.3504 33.245 27.0696
RightArm  -35.6937 27.0797 10.1341
RightForeArm  15.1002 10.8639 7.97827
RightHand  -1.19551 0.0754962 -25.1829
LeftUpLeg  -66.4662 -2.60324 -4.39862
LeftLeg  124.821 3.77557 -5.51336
LeftFoot  -16.3543 -0.209012 -7.0048
LeftToes  1.0277e-010 -6.71454e-011 3.04227e-011
2394
root  18.2144 19.582 28.8293 -131.981 69.064 178.472
RightUpLeg  -42.2687 2.89454 -2.85898
RightLeg  106.804 2.81105 -7.16527
RightFoot  -23.1865 1.47115 15.6186
RightToes  -3.31784e-009 0 -3.6325e-017
Spine  41.6025 4.27067 -6.84275
Spine1  -11.4327 1.44867 1.83809
HEad  -40.7914 18.3907 -30.4101
LeftShoulder1  0.847378 -5.06535 -1.64671
LeftArm  5.98074 -81.9955 -66.3733
LeftForeArm  14.84 7.31428 -16.129
LeftHand  0.760328 9.31613 22.5118
RightShoulder  11.9436 33.8313 25.377
RightArm  -37.9154 28.3448 9.54615
RightForeArm  15.4759 11.6201 7.44939
RightHand  -1.16842 0.0700676 -24.653
LeftUpLeg  -67.7121 -1.20777 -5.58339
LeftLeg  122.735 1.95777 -3.33479
LeftFoot  -10.5647 0.117183 -7.95483
LeftToes  1.0277e-010 -6.71454e-011 3.04227e-011
2395
root  18.407 19.5266 28.667 -129.303 69.897 -178.5
RightUpLeg  -41.4363 3.77993 -2.46351
RightLeg  105.968 3.12912 -8.4933
RightFoot  -23.5415 1.68215 17.128
RightToes  -3.31784e-009 0 -3.6325e-017
Spine  41.1268 4.01534 -6.13273
Spine1  -11.3775 1.60375 0.843143
HEad  -41.1822 18.9404 -30.2459
LeftShoulder1  0.901407 -5.22534 -2.14381
LeftArm  1.76833 -80.444 -61.6995
LeftForeArm  14.8131 7.23951 -16.213
LeftHand  0.766566 9.34105 22.5484
RightShoulder  11.2985 34.6849 22.8374
RightArm  -41.322 29.9997 9.00479
RightForeArm  17.1139 10.4972 7.06077
RightHand  -1.14947 0.290354 -23.3575
LeftUpLeg  -67.4029 -0.226583 -5.58583
LeftLeg  122.158 1.22072 -2.32009
LeftFoot  -7.93736 0.408355 -12.1114
LeftToes  1.0277e-010 -6.71454e-011 3.04227e-011
2396
root  18.5997 19.4388 28.4984 -124.812 70.9135 -174.026
RightUpLeg  -41.1777 5.08265 -2.12853
RightLeg  105.209 3.37403 -9.66809
RightFoot  -23.8517 1.88753 18.5591
RightToes  -3.31784e-009 0 -3.6325e-017
Spine  40.4671 3.69028 -5.02972
Spine1  -11.6551 1.88325 -0.665575
HEad  -42.019 19.1902 -29.9158
LeftShoulder1  0.962778 -5.2251 -2.94142
LeftArm  -0.340493 -78.6131 -58.243
LeftForeArm  14.2266 7.00114 -16.484
LeftHand  0.781659 9.39887 22.6481
RightShoulder  10.5705 35.8494 19.92
RightArm  -44.3652 31.8965 8.31282
RightForeArm  18.0823 8.02228 6.49145
RightHand  -1.09265 0.519664 -21.3999
LeftUpLeg  -66.5281 1.6924 -5.73552
LeftLeg  121.976 1.14898 -2.22858
LeftFoot  -8.75362 0.316704 -11.6749
LeftToes  1.0277e-010 -6.71454e-011 3.04227e-011
2397
root  18.7878 19.2803 28.332 -119.252 71.5737 -168.856
RightUpLeg  -41.2721 6.28506 -1.72362
RightLeg  104.62 3.37934 -10.0494
RightFoot  -23.6895 1.69183 17.0208
RightToes  -3.31784e-009 0 -3.6325e-017
Spine  39.7142 3.19801 -3.16955
Spine1  -12.2899 2.17698 -2.26419
HEad  -42.4836 19.1474 -29.5308
LeftShoulder1  1.0337 -5.23556 -3.8452
LeftArm  -1.58394 -76.8632 -55.8805
LeftForeArm  13.5319 6.79963 -16.7004
LeftHand  0.771252 9.35637 22.5935
RightShoulder  9.50816 36.9055 16.3289
RightArm  -45.347 34.149 8.01252
RightForeArm  16.4916 4.12951 5.68909
RightHand  -1.03936 0.745597 -19.6555
LeftUpLeg  -65.6917 2.241 -5.27258
LeftLeg  121.896 1.28695 -2.43855
LeftFoot  -10.5645 0.143452 -11.819
LeftToes  1.0277e-010 -6.71454e-011 3.04227e-011
2398
root  19.0611 19.1927 28.1688 -114.832 72.4854 -165.034
RightUpLeg  -41.3436 7.38824 -1.92242
RightLeg  103.69 3.43859 -10.8834
RightFoot  -23.7626 1.7134 17.12
RightToes  -3.31784e-009 0 -3.6325e-017
Spine  39.0002 2.77926 -1.82444
Spine1  -12.8011 2.44044 -4.32001
HEad  -42.0323 18.876 -29.0256
LeftShoulder1  1.05472 -5.31612 -3.99275
LeftArm  -3.06678 -74.9412 -55.0631
LeftForeArm  14.0823 6.87059 -16.6103
LeftHand  0.796028 9.45545 22.7323
RightShoulder  8.38746 38.0235 12.6971
RightArm  -45.2179 36.3307 8.18595
RightForeArm  14.8967 -1.15498 4.88978
RightHand  -0.961675 0.975613 -17.5812
LeftUpLeg  -64.4812 3.01186 -5.17552
LeftLeg  120.893 1.81092 -3.33393
LeftFoot  -11.7545 0.0288975 -11.4295
LeftToes  1.0277e-010 -6.71454e-011 3.04227e-011
